<?xml version="1.0" standalone="no"?>
<!DOCTYPE svg PUBLIC "-//W3C//DTD SVG 20010904//EN"
 "http://www.w3.org/TR/2001/REC-SVG-20010904/DTD/svg10.dtd">
<svg version="1.0" xmlns="http://www.w3.org/2000/svg"
 width="1024.000000pt" height="1024.000000pt" viewBox="0 0 1024.000000 1024.000000"
 preserveAspectRatio="xMidYMid meet">

<g transform="translate(0.000000,1024.000000) scale(0.100000,-0.100000)"
fill="#000000" stroke="none">
<path d="M2973 7095 c-26 -16 -45 -37 -52 -56 -15 -44 -16 -1908 0 -1942 19
-41 58 -47 311 -47 341 0 334 -5 340 220 6 233 25 262 171 262 141 1 165 -22
272 -264 75 -169 84 -183 134 -204 52 -22 597 -20 629 2 28 20 29 72 2 107
-11 14 -20 31 -20 38 0 16 -144 302 -173 344 -12 17 -41 54 -64 84 -27 33 -43
62 -41 74 2 13 23 32 53 50 98 57 188 164 236 282 23 57 24 70 24 280 0 208
-1 223 -24 280 -69 173 -149 279 -278 365 -203 136 -293 150 -983 150 l-495 0
-42 -25z m1014 -466 c76 -28 118 -61 145 -112 31 -58 39 -289 13 -367 -39
-116 -101 -147 -311 -152 -125 -3 -143 -1 -179 18 -70 36 -79 69 -83 287 -4
218 7 278 59 321 30 25 35 26 164 26 112 0 144 -4 192 -21z"/>
<path d="M5703 6115 c-63 -19 -124 -58 -171 -109 -47 -51 -117 -184 -132 -252
-6 -26 -26 -88 -44 -138 -18 -50 -45 -127 -59 -171 -44 -135 -77 -229 -87
-250 -16 -32 -118 -331 -150 -438 -33 -111 -42 -127 -76 -127 -28 0 -59 43
-69 97 -10 53 -49 108 -92 129 -33 17 -66 19 -263 22 -335 5 -365 -2 -365 -80
0 -31 15 -75 57 -163 31 -66 73 -160 93 -210 32 -78 91 -214 157 -365 66 -147
158 -253 271 -308 101 -50 312 -65 427 -31 71 21 163 75 219 129 82 79 116
142 192 360 38 108 77 211 88 230 5 9 12 31 16 49 4 19 18 55 31 81 13 26 24
54 24 62 0 8 3 17 6 21 3 3 18 41 34 84 15 43 42 116 59 163 42 112 100 271
144 395 20 55 62 163 93 240 57 138 58 141 58 240 0 121 -12 153 -86 231 -101
107 -247 150 -375 109z"/>
<path d="M6557 5542 c-38 -26 -48 -43 -86 -142 -18 -47 -45 -119 -61 -160 -40
-105 -42 -114 -29 -143 9 -21 22 -28 58 -34 61 -10 688 -10 726 0 75 21 109
46 140 107 43 85 47 146 16 231 -24 64 -56 101 -114 132 -40 21 -53 22 -332
25 -270 2 -292 1 -318 -16z"/>
<path d="M6322 4900 c-37 -23 -50 -48 -92 -186 -17 -55 -42 -125 -56 -155 -47
-96 -35 -122 64 -139 74 -12 860 -8 924 5 42 8 121 71 143 115 21 40 27 117
16 193 -12 81 -42 123 -115 161 l-50 26 -400 0 c-383 0 -402 -1 -434 -20z"/>
<path d="M3023 4869 c-45 -13 -96 -67 -111 -116 -28 -93 -6 -208 53 -285 63
-84 144 -118 280 -118 88 0 130 9 190 42 113 61 180 227 141 346 -20 60 -47
97 -86 117 -34 17 -417 29 -467 14z"/>
<path d="M6088 4264 c-33 -17 -52 -52 -90 -159 -95 -268 -98 -292 -31 -320 30
-13 129 -15 614 -15 374 0 580 4 584 10 3 6 16 10 29 10 36 0 106 68 132 127
32 71 32 143 0 214 -28 64 -64 100 -126 128 -43 20 -63 21 -565 20 -441 0
-524 -2 -547 -15z"/>
<path d="M5850 3617 c-39 -10 -91 -63 -121 -123 -19 -38 -24 -65 -23 -119 1
-122 59 -215 162 -261 l53 -24 595 0 c654 0 660 0 743 60 24 18 52 51 68 82
22 45 27 66 27 138 1 75 -2 90 -26 131 -33 55 -75 93 -120 108 -39 12 -1312
20 -1358 8z"/>
</g>
</svg>
