<?xml version="1.0" standalone="no"?>
<!DOCTYPE svg PUBLIC "-//W3C//DTD SVG 20010904//EN"
 "http://www.w3.org/TR/2001/REC-SVG-20010904/DTD/svg10.dtd">
<svg version="1.0" xmlns="http://www.w3.org/2000/svg"
 width="764.000000pt" height="764.000000pt" viewBox="0 0 764.000000 764.000000"
 preserveAspectRatio="xMidYMid meet">
<metadata>
Created by potrace 1.16, written by Peter Selinger 2001-2019
</metadata>
<g transform="translate(0.000000,764.000000) scale(0.100000,-0.100000)"
fill="#A4B3C9" stroke="none">
<path d="M1652 5829 c-23 -12 -52 -35 -65 -53 l-22 -31 -3 -961 -2 -961 23
-34 c37 -56 68 -61 352 -57 220 3 254 5 278 21 55 36 62 58 67 233 4 145 7
166 26 191 25 33 79 45 163 36 80 -8 99 -31 192 -233 44 -96 90 -185 101 -197
46 -50 80 -54 400 -51 292 3 298 3 320 25 38 38 29 74 -65 264 -92 186 -148
280 -203 342 -41 45 -41 50 -9 65 49 22 134 94 173 145 54 70 89 144 114 235
29 109 29 313 0 432 -60 247 -211 429 -437 528 -170 74 -254 82 -860 82 -488
0 -501 -1 -543 -21z m1029 -532 c49 -25 70 -43 94 -81 29 -48 30 -54 33 -185
2 -133 2 -137 -25 -186 -19 -33 -44 -59 -77 -80 -48 -29 -53 -30 -191 -33
-233 -6 -235 -3 -235 298 0 298 1 300 206 300 130 0 133 -1 195 -33z"/>

<path d="M4395 4856 c-28 -7 -73 -23 -100 -36 -61 -29 -153 -121 -183 -182
-12 -25 -65 -169 -116 -319 -52 -151 -131 -380 -176 -509 -45 -129 -95 -275
-112 -325 -49 -145 -44 -143 -97 -36 -32 65 -58 104 -84 125 l-39 31 -231 3
c-128 2 -260 1 -295 -3 -115 -12 -149 -71 -101 -175 12 -25 86 -196 166 -380
79 -184 160 -362 178 -396 47 -83 150 -178 241 -221 298 -142 656 -18 795 275
16 34 54 133 85 220 30 86 68 191 84 232 85 222 152 400 299 805 50 138 105
282 121 320 59 139 61 249 8 363 -47 99 -163 185 -286 211 -64 13 -92 13 -157
-3z"/>

<path d="M5049 3649 c-60 -9 -95 -33 -118 -78 -35 -69 -132 -342 -133 -376 -1
-41 24 -82 58 -95 15 -6 223 -10 500 -10 519 0 507 -1 585 60 23 19 51 56 70
96 30 60 31 69 26 142 -3 51 -12 93 -26 119 -24 49 -101 118 -144 132 -38 11
-752 20 -818 10z"/>
<path d="M1664 3586 c-75 -33 -123 -143 -110 -250 13 -97 36 -147 95 -206 173
-172 497 -132 602 72 39 77 42 225 6 295 -22 41 -55 73 -93 89 -47 20 -455 19
-500 0z"/>
<path d="M4761 2999 c-28 -11 -56 -42 -78 -83 -19 -36 -102 -267 -113 -315
-16 -65 10 -119 68 -143 38 -16 1152 -24 1207 -9 61 16 131 65 161 113 98 155
42 355 -121 429 -37 17 -78 19 -570 18 -315 0 -540 -4 -554 -10z"/>
<path d="M4495 2341 c-114 -53 -171 -208 -130 -357 15 -56 27 -75 74 -124 92
-93 62 -90 772 -90 677 0 663 -1 748 68 95 78 130 236 78 354 -31 69 -110 141
-171 157 -31 8 -243 11 -688 11 -605 0 -645 -2 -683 -19z"/>
</g>
</svg>
